<svg width="40" height="40" viewBox="0 0 40 40" fill="none" xmlns="http://www.w3.org/2000/svg">
<g clip-path="url(#clip0_2801_16734)">
<rect width="40" height="40" rx="6" fill="white" fill-opacity="0.1"/>
<rect x="-0.0117188" width="42.4119" height="40" rx="6" fill="white" fill-opacity="0.1"/>
<rect width="42" height="40" fill="#E71F2A"/>
<mask id="mask0_2801_16734" style="mask-type:luminance" maskUnits="userSpaceOnUse" x="8" y="7" width="25" height="25">
<path d="M33 7H8V32H33V7Z" fill="white"/>
</mask>
<g mask="url(#mask0_2801_16734)">
<path d="M10.083 19.5H12.583V20.3333H10.083V19.5Z" fill="white"/>
<path d="M32.5833 12V7.41667C32.5833 7.18656 32.3968 7 32.1667 7H27.1667C26.9366 7 26.75 7.18656 26.75 7.41667V12C26.5199 12 26.3333 12.1866 26.3333 12.4167V17.4167C26.3358 17.4366 26.3396 17.4562 26.3449 17.4754C26.3471 17.4895 26.3425 17.5037 26.3449 17.5171L27.5949 22.5171C27.6411 22.7031 27.8084 22.8336 28 22.8333H28.4167V28.0417C28.4167 28.8471 27.7638 29.5 26.9583 29.5C26.1529 29.5 25.5 28.8471 25.5 28.0417V10.125C25.5 8.39912 24.1009 7 22.375 7C20.6491 7 19.25 8.39912 19.25 10.125V28.875C19.25 29.2203 18.9703 29.5 18.625 29.5C18.2797 29.5 18 29.2203 18 28.875V10.9583C18 8.77226 16.2277 7 14.0417 7C11.8556 7 10.0833 8.77226 10.0833 10.9583V16.1667H9.66667C9.47562 16.1667 9.309 16.2967 9.26241 16.4821L8.01241 21.4821C8.00916 21.4963 8.01241 21.5105 8.01241 21.5237C8.00671 21.5432 8.00264 21.5632 8 21.5833V26.5833C8 26.8134 8.18656 27 8.41667 27V31.5833C8.41667 31.8134 8.60323 32 8.83333 32H13.8333C14.0634 32 14.25 31.8134 14.25 31.5833V27C14.4801 27 14.6667 26.8134 14.6667 26.5833V21.5833C14.6642 21.5634 14.6604 21.5438 14.6551 21.5246C14.6528 21.5105 14.6575 21.4963 14.6551 21.4829L13.4051 16.4829C13.3589 16.2969 13.1917 16.1664 13 16.1667H12.5833V10.9583C12.5833 10.1529 13.2362 9.5 14.0417 9.5C14.8471 9.5 15.5 10.1529 15.5 10.9583V28.875C15.5 30.6009 16.8991 32 18.625 32C20.3509 32 21.75 30.6009 21.75 28.875V10.125C21.75 9.77974 22.0297 9.5 22.375 9.5C22.7203 9.5 23 9.77974 23 10.125V28.0417C23 30.2278 24.7722 32 26.9583 32C29.1444 32 30.9167 30.2278 30.9167 28.0417V22.8333H31.3333C31.5244 22.8333 31.691 22.7033 31.7376 22.5179L32.9876 17.5179C32.9908 17.5037 32.9876 17.4895 32.9876 17.4763C32.9933 17.4568 32.9973 17.4368 33 17.4167V12.4167C33 12.1866 32.8134 12 32.5833 12ZM27.1667 12.8333H28.4167V14.0833C28.4167 14.3134 28.6032 14.5 28.8333 14.5H30.5C30.7301 14.5 30.9167 14.3134 30.9167 14.0833V12.8333H32.1667V17H27.1667V12.8333ZM30.0833 13.6667H29.25V11.1667H30.0833V13.6667ZM27.5833 7.83333H28.4167V9.53459H29.25V7.83333H30.0833V9.5H30.9167V7.83333H31.75V12H30.9167V10.75C30.9167 10.5199 30.7301 10.3333 30.5 10.3333H28.8333C28.6032 10.3333 28.4167 10.5199 28.4167 10.75V12H27.5833V7.83333ZM13.8333 26.1667H8.83333V22H13.8333V26.1667ZM13.4167 31.1667H12.5833V29.5H11.75V31.1667H10.9167V29.5H10.0833V31.1667H9.25V27H13.4167V31.1667ZM13.7163 21.1667H8.95032L9.99198 17H12.6747L13.7163 21.1667ZM30.0833 28.0417C30.0833 29.7675 28.6842 31.1667 26.9583 31.1667C25.2325 31.1667 23.8333 29.7675 23.8333 28.0417V10.125C23.8333 9.31954 23.1804 8.66667 22.375 8.66667C21.5696 8.66667 20.9167 9.31954 20.9167 10.125V28.875C20.9167 30.1406 19.8906 31.1667 18.625 31.1667C17.3594 31.1667 16.3333 30.1406 16.3333 28.875V10.9583C16.3333 9.69267 15.3073 8.66667 14.0417 8.66667C12.776 8.66667 11.75 9.69267 11.75 10.9583V16.1667H10.9167V10.9583C10.9167 9.23246 12.3158 7.83333 14.0417 7.83333C15.7675 7.83333 17.1667 9.23246 17.1667 10.9583V28.875C17.1667 29.6804 17.8196 30.3333 18.625 30.3333C19.4304 30.3333 20.0833 29.6804 20.0833 28.875V10.125C20.0833 8.85933 21.1094 7.83333 22.375 7.83333C23.6406 7.83333 24.6667 8.85933 24.6667 10.125V28.0417C24.6667 29.3073 25.6927 30.3333 26.9583 30.3333C28.224 30.3333 29.25 29.3073 29.25 28.0417V22.8333H30.0833V28.0417ZM31.008 22H28.3254L27.2837 17.8333H32.0496L31.008 22Z" fill="white"/>
<path d="M28.417 18.6667H30.917V19.5001H28.417V18.6667Z" fill="white"/>
<path d="M28.833 20.3333H30.4996V21.1666H28.833V20.3333Z" fill="white"/>
<path d="M10.083 27.8333H12.583V28.6666H10.083V27.8333Z" fill="white"/>
<path d="M10.5 17.8333H12.1667V18.6666H10.5V17.8333Z" fill="white"/>
</g>
</g>
<defs>
<clipPath id="clip0_2801_16734">
<rect width="40" height="40" rx="6" fill="white"/>
</clipPath>
</defs>
</svg>
