<svg width="40" height="40" viewBox="0 0 40 40" fill="none" xmlns="http://www.w3.org/2000/svg">
<g clip-path="url(#clip0_2801_16638)">
<rect width="40" height="40" rx="6" fill="white" fill-opacity="0.1"/>
<g clip-path="url(#clip1_2801_16638)">
<rect x="-0.0117188" width="42.4119" height="40" rx="6" fill="white" fill-opacity="0.1"/>
<rect x="-2" width="42" height="40" fill="#E71F2A"/>
<g clip-path="url(#clip2_2801_16638)">
<mask id="mask0_2801_16638" style="mask-type:luminance" maskUnits="userSpaceOnUse" x="20" y="9" width="14" height="14">
<path d="M33.5002 9.55127H20.5771V22.4744H33.5002V9.55127Z" fill="white"/>
</mask>
<g mask="url(#mask0_2801_16638)">
<path d="M32.9623 11.7051H21.1162V13.3205L21.6546 13.8589L22.1931 16.0128L23.27 18.7051L24.8854 19.782L27.0393 20.3205L29.1931 19.782L31.3469 18.1666L31.8854 16.0128V13.8589L32.9623 13.3205V11.7051Z" fill="#E71F2A"/>
<path d="M32.0962 13.3845H21.9825C21.7722 13.3845 21.6016 13.5552 21.6016 13.7655V15.4511C21.6016 18.4494 24.0411 20.8889 27.0394 20.8889C30.0377 20.8889 32.4772 18.4494 32.4772 15.4511V13.7655C32.4772 13.5552 32.3065 13.3845 32.0962 13.3845ZM31.7153 15.4511C31.7153 18.0294 29.6177 20.127 27.0394 20.127C24.4611 20.127 22.3635 18.0294 22.3635 15.4511V14.1464H31.7153V15.4511Z" fill="white" stroke="white" strokeWidth="0.2"/>
<path d="M27.0387 14.9827C25.8506 14.9827 24.8848 15.9493 24.8848 17.1365C24.8848 18.3237 25.8506 19.2904 27.0387 19.2904C28.2267 19.2904 29.1926 18.3237 29.1926 17.1365C29.1926 15.9493 28.2268 14.9827 27.0387 14.9827ZM27.0387 18.4289C26.3262 18.4289 25.7464 17.8491 25.7464 17.1365C25.7464 16.424 26.3262 15.8442 27.0387 15.8442C27.7512 15.8442 28.331 16.424 28.331 17.1365C28.331 17.8491 27.7512 18.4289 27.0387 18.4289Z" fill="white"/>
<path d="M33.2196 11.137H20.8584C20.6481 11.137 20.4775 11.3076 20.4775 11.5179V13.2035C20.4775 13.7234 20.9004 14.1463 21.4203 14.1463H32.6578C33.1777 14.1463 33.6006 13.7234 33.6006 13.2035V11.5179C33.6006 11.3076 33.4299 11.137 33.2196 11.137ZM32.8387 13.2035C32.8387 13.3032 32.7572 13.3845 32.6577 13.3845H21.4203C21.3209 13.3845 21.2394 13.3032 21.2394 13.2035V11.8988H32.8387V13.2035Z" fill="white" stroke="white" strokeWidth="0.2"/>
<path d="M30.4102 15.832C30.6206 15.832 30.7912 15.6614 30.7912 15.451C30.7912 15.2406 30.6206 15.0701 30.4102 15.0701C30.1998 15.0701 30.0293 15.2406 30.0293 15.451C30.0293 15.6614 30.1998 15.832 30.4102 15.832Z" fill="white" stroke="white" strokeWidth="0.2"/>
</g>
<mask id="mask1_2801_16638" style="mask-type:luminance" maskUnits="userSpaceOnUse" x="13" y="9" width="13" height="14">
<path d="M25.9612 9.55127H13.0381V22.4744H25.9612V9.55127Z" fill="white"/>
</mask>
<g mask="url(#mask1_2801_16638)">
<path d="M25.4233 11.7051H13.5771V13.3205L14.1156 13.8589L14.6541 16.0128L15.731 18.7051L17.3464 19.782L19.5002 20.3205L21.6541 19.782L23.8079 18.1666L24.3464 16.0128V13.8589L25.4233 13.3205V11.7051Z" fill="#E71F2A"/>
<path d="M24.5571 13.3845H14.4434C14.2331 13.3845 14.0625 13.5552 14.0625 13.7655V15.4511C14.0625 18.4494 16.502 20.8889 19.5003 20.8889C22.4986 20.8889 24.9381 18.4494 24.9381 15.4511V13.7655C24.9381 13.5552 24.7674 13.3845 24.5571 13.3845ZM24.1762 15.4511C24.1762 18.0294 22.0786 20.127 19.5003 20.127C16.922 20.127 14.8244 18.0294 14.8244 15.4511V14.1464H24.1762V15.4511Z" fill="white" stroke="white" strokeWidth="0.2"/>
<path d="M19.4996 14.9827C18.3115 14.9827 17.3457 15.9493 17.3457 17.1365C17.3457 18.3237 18.3115 19.2904 19.4996 19.2904C20.6876 19.2904 21.6534 18.3237 21.6534 17.1365C21.6534 15.9493 20.6876 14.9827 19.4996 14.9827ZM19.4996 18.4289C18.787 18.4289 18.2072 17.8491 18.2072 17.1365C18.2072 16.424 18.787 15.8442 19.4996 15.8442C20.2121 15.8442 20.7919 16.424 20.7919 17.1365C20.7919 17.8491 20.2121 18.4289 19.4996 18.4289Z" fill="white"/>
<path d="M25.6806 11.137H13.3194C13.1091 11.137 12.9385 11.3076 12.9385 11.5179V13.2035C12.9385 13.7234 13.3614 14.1463 13.8813 14.1463H25.1187C25.6386 14.1463 26.0616 13.7234 26.0616 13.2035V11.5179C26.0616 11.3076 25.8909 11.137 25.6806 11.137ZM25.2997 13.2035C25.2997 13.3032 25.2181 13.3845 25.1187 13.3845H13.8813C13.7819 13.3845 13.7003 13.3032 13.7003 13.2035V11.8988H25.2997V13.2035Z" fill="white" stroke="white" strokeWidth="0.2"/>
<path d="M22.8712 15.832C23.0816 15.832 23.2521 15.6614 23.2521 15.451C23.2521 15.2406 23.0816 15.0701 22.8712 15.0701C22.6608 15.0701 22.4902 15.2406 22.4902 15.451C22.4902 15.6614 22.6608 15.832 22.8712 15.832Z" fill="white" stroke="white" strokeWidth="0.2"/>
</g>
<mask id="mask2_2801_16638" style="mask-type:luminance" maskUnits="userSpaceOnUse" x="5" y="9" width="14" height="14">
<path d="M18.4231 9.55127H5.5V22.4744H18.4231V9.55127Z" fill="white"/>
</mask>
<g mask="url(#mask2_2801_16638)">
<path d="M17.8852 11.7051H6.03906V13.3205L6.57753 13.8589L7.11599 16.0128L8.19291 18.7051L9.80829 19.782L11.9621 20.3205L14.116 19.782L16.2698 18.1666L16.8083 16.0128V13.8589L17.8852 13.3205V11.7051Z" fill="#E71F2A"/>
<path d="M17.019 13.3845H6.90535C6.69505 13.3845 6.52441 13.5552 6.52441 13.7655V15.4511C6.52441 18.4494 8.96389 20.8889 11.9622 20.8889C14.9605 20.8889 17.4 18.4494 17.4 15.4511V13.7655C17.4 13.5552 17.2293 13.3845 17.019 13.3845ZM16.6381 15.4511C16.6381 18.0294 14.5405 20.127 11.9622 20.127C9.38397 20.127 7.2863 18.0294 7.2863 15.4511V14.1464H16.6381V15.4511Z" fill="white" stroke="white" strokeWidth="0.2"/>
<path d="M11.9615 14.9827C10.7734 14.9827 9.80762 15.9493 9.80762 17.1365C9.80762 18.3237 10.7734 19.2904 11.9615 19.2904C13.1495 19.2904 14.1153 18.3237 14.1153 17.1365C14.1153 15.9493 13.1496 14.9827 11.9615 14.9827ZM11.9615 18.4289C11.249 18.4289 10.6691 17.8491 10.6691 17.1365C10.6691 16.424 11.249 15.8442 11.9615 15.8442C12.674 15.8442 13.2538 16.424 13.2538 17.1365C13.2538 17.8491 12.674 18.4289 11.9615 18.4289Z" fill="white"/>
<path d="M18.1425 11.137H5.78134C5.57103 11.137 5.40039 11.3076 5.40039 11.5179V13.2035C5.40039 13.7234 5.82329 14.1463 6.3432 14.1463H17.5807C18.1006 14.1463 18.5235 13.7234 18.5235 13.2035V11.5179C18.5235 11.3076 18.3528 11.137 18.1425 11.137ZM17.7616 13.2035C17.7616 13.3032 17.6801 13.3845 17.5806 13.3845H6.3432C6.24378 13.3845 6.16225 13.3032 6.16225 13.2035V11.8988H17.7616V13.2035Z" fill="white" stroke="white" strokeWidth="0.2"/>
<path d="M15.3331 15.832C15.5435 15.832 15.714 15.6614 15.714 15.451C15.714 15.2406 15.5435 15.0701 15.3331 15.0701C15.1227 15.0701 14.9521 15.2406 14.9521 15.451C14.9521 15.6614 15.1227 15.832 15.3331 15.832Z" fill="white" stroke="white" strokeWidth="0.2"/>
</g>
<path d="M30.8073 26.5628C31.0834 26.5628 31.3533 26.4809 31.5829 26.3275C31.8125 26.1741 31.9915 25.956 32.0972 25.7009C32.2028 25.4458 32.2305 25.1651 32.1766 24.8942C32.1227 24.6234 31.9898 24.3746 31.7945 24.1794C31.5993 23.9841 31.3505 23.8512 31.0797 23.7973C30.8088 23.7434 30.5281 23.7711 30.273 23.8767C30.0179 23.9824 29.7998 24.1614 29.6464 24.391C29.493 24.6206 29.4111 24.8905 29.4111 25.1666C29.4111 25.35 29.4472 25.5315 29.5174 25.7009C29.5876 25.8703 29.6904 26.0242 29.8201 26.1538C29.9497 26.2835 30.1036 26.3863 30.273 26.4565C30.4424 26.5267 30.6239 26.5628 30.8073 26.5628ZM30.8073 24.7679C30.8861 24.7679 30.9632 24.7913 31.0288 24.8351C31.0944 24.8789 31.1455 24.9412 31.1756 25.014C31.2058 25.0869 31.2137 25.1671 31.1983 25.2444C31.183 25.3217 31.145 25.3928 31.0892 25.4486C31.0335 25.5043 30.9624 25.5423 30.8851 25.5577C30.8077 25.5731 30.7276 25.5652 30.6547 25.535C30.5818 25.5048 30.5196 25.4537 30.4758 25.3881C30.4319 25.3226 30.4086 25.2455 30.4086 25.1666C30.4086 25.0609 30.4506 24.9595 30.5253 24.8847C30.6001 24.8099 30.7015 24.7679 30.8073 24.7679Z" fill="white" stroke="white" strokeWidth="0.1"/>
<path d="M8.82098 24.219C8.68872 24.219 8.56187 24.2716 8.46834 24.3651C8.37481 24.4586 8.32227 24.5855 8.32227 24.7178V27.4101C8.32227 27.5423 8.37481 27.6692 8.46834 27.7627C8.56186 27.8562 8.68872 27.9088 8.82098 27.9088H21.385C21.5173 27.9088 21.6442 27.8562 21.7377 27.7627C21.8312 27.6692 21.8838 27.5423 21.8838 27.4101V24.7178C21.8838 24.5855 21.8312 24.4586 21.7377 24.3651C21.6442 24.2716 21.5173 24.219 21.385 24.219H8.82098ZM20.8863 26.9113H9.3197V25.2165H20.8863V26.9113Z" fill="white" stroke="white" strokeWidth="0.1"/>
<path d="M24.5256 24.219H24.4756V24.269V25.1665V25.2165H24.5256H25.4231H25.4731V25.1665V24.269V24.219H25.4231H24.5256Z" fill="white" stroke="white" strokeWidth="0.1"/>
<path d="M26.3205 24.219H26.2705V24.269V25.1665V25.2165H26.3205H27.2179H27.2679V25.1665V24.269V24.219H27.2179H26.3205Z" fill="white" stroke="white" strokeWidth="0.1"/>
<path d="M24.5256 26.9116H24.4756V26.9616V27.859V27.909H24.5256H25.4231H25.4731V27.859V26.9616V26.9116H25.4231H24.5256Z" fill="white" stroke="white" strokeWidth="0.1"/>
<path d="M26.3205 26.9116H26.2705V26.9616V27.859V27.909H26.3205H27.2179H27.2679V27.859V26.9616V26.9116H27.2179H26.3205Z" fill="white" stroke="white" strokeWidth="0.1"/>
<path d="M7.9235 22.4243H18.244H32.1542C32.5245 22.4243 32.8796 22.5714 33.1415 22.8333C33.4033 23.0951 33.5504 23.4502 33.5504 23.8205V28.3077C33.5504 28.678 33.4033 29.0331 33.1415 29.2949C32.8796 29.5567 32.5245 29.7038 32.1542 29.7038H30.7488L30.3944 31.1207M7.9235 22.4243L27.6805 31.1086C27.7047 31.2057 27.7607 31.2919 27.8396 31.3535C27.9185 31.4152 28.0157 31.4487 28.1158 31.4487H29.9106C30.0107 31.4487 30.1079 31.4152 30.1868 31.3535C30.2657 31.2919 30.3217 31.2057 30.3459 31.1086L30.3944 31.1207M7.9235 22.4243C7.55322 22.4243 7.1981 22.5714 6.93627 22.8333C6.67444 23.0951 6.52734 23.4502 6.52734 23.8205V28.3077C6.52734 28.678 6.67444 29.0331 6.93627 29.2949C7.1981 29.5567 7.55322 29.7038 7.9235 29.7038H9.32889L9.68332 31.1207L7.9235 22.4243ZM30.3944 31.1207C30.3675 31.2286 30.3052 31.3245 30.2176 31.3929C30.1299 31.4614 30.0219 31.4987 29.9106 31.4987H28.1158C28.0045 31.4987 27.8965 31.4614 27.8088 31.3929C27.7212 31.3244 27.6589 31.2286 27.632 31.1207M30.3944 31.1207H27.632H30.3944ZM27.632 31.1207L27.2776 29.7038H12.8002L12.4457 31.1207L12.3972 31.1086C12.373 31.2057 12.317 31.2919 12.2381 31.3535C12.1593 31.4152 12.0621 31.4487 11.962 31.4487H10.1671C10.067 31.4487 9.96979 31.4152 9.89092 31.3535C9.81205 31.2919 9.75605 31.2057 9.73183 31.1086L27.632 31.1207ZM11.7718 29.7038L11.5725 30.5013H10.5566L10.3572 29.7038H11.7718ZM29.7205 29.7038L29.5212 30.5013H28.5053L28.3059 29.7038H29.7205ZM32.5529 23.8205V28.3077C32.5529 28.4134 32.5109 28.5148 32.4362 28.5896C32.3614 28.6644 32.26 28.7064 32.1542 28.7064H7.9235C7.81775 28.7064 7.71634 28.6644 7.64156 28.5896C7.56679 28.5148 7.52478 28.4134 7.52478 28.3077V23.8205C7.52478 23.7147 7.56679 23.6133 7.64156 23.5386C7.71634 23.4638 7.81775 23.4218 7.9235 23.4218H32.1542C32.26 23.4218 32.3614 23.4638 32.4362 23.5386C32.5109 23.6133 32.5529 23.7147 32.5529 23.8205Z" fill="white"/>
<path d="M7.9235 22.4243H18.244H32.1542C32.5245 22.4243 32.8796 22.5714 33.1415 22.8333C33.4033 23.0951 33.5504 23.4502 33.5504 23.8205V28.3077C33.5504 28.678 33.4033 29.0331 33.1415 29.2949C32.8796 29.5567 32.5245 29.7038 32.1542 29.7038H30.7488L30.3944 31.1207M7.9235 22.4243L27.6805 31.1086C27.7047 31.2057 27.7607 31.2919 27.8396 31.3535C27.9185 31.4152 28.0157 31.4487 28.1158 31.4487H29.9106C30.0107 31.4487 30.1079 31.4152 30.1868 31.3535C30.2657 31.2919 30.3217 31.2057 30.3459 31.1086L30.3944 31.1207M7.9235 22.4243C7.55322 22.4243 7.1981 22.5714 6.93627 22.8333C6.67444 23.0951 6.52734 23.4502 6.52734 23.8205V28.3077C6.52734 28.678 6.67444 29.0331 6.93627 29.2949C7.1981 29.5567 7.55322 29.7038 7.9235 29.7038H9.32889L9.68332 31.1207L7.9235 22.4243ZM30.3944 31.1207C30.3675 31.2286 30.3052 31.3245 30.2176 31.3929C30.1299 31.4614 30.0219 31.4987 29.9106 31.4987H28.1158C28.0045 31.4987 27.8965 31.4614 27.8088 31.3929C27.7212 31.3244 27.6589 31.2286 27.632 31.1207M30.3944 31.1207H27.632M27.632 31.1207L27.2776 29.7038H12.8002L12.4457 31.1207L12.3972 31.1086C12.373 31.2057 12.317 31.2919 12.2381 31.3535C12.1593 31.4152 12.0621 31.4487 11.962 31.4487H10.1671C10.067 31.4487 9.96979 31.4152 9.89092 31.3535C9.81205 31.2919 9.75605 31.2057 9.73183 31.1086L27.632 31.1207ZM11.7718 29.7038L11.5725 30.5013H10.5566L10.3572 29.7038H11.7718ZM29.7205 29.7038L29.5212 30.5013H28.5053L28.3059 29.7038H29.7205ZM32.5529 23.8205V28.3077C32.5529 28.4134 32.5109 28.5148 32.4362 28.5896C32.3614 28.6644 32.26 28.7064 32.1542 28.7064H7.9235C7.81775 28.7064 7.71634 28.6644 7.64156 28.5896C7.56679 28.5148 7.52478 28.4134 7.52478 28.3077V23.8205C7.52478 23.7147 7.56679 23.6133 7.64156 23.5386C7.71634 23.4638 7.81775 23.4218 7.9235 23.4218H32.1542C32.26 23.4218 32.3614 23.4638 32.4362 23.5386C32.5109 23.6133 32.5529 23.7147 32.5529 23.8205Z" stroke="white" strokeWidth="0.1"/>
</g>
</g>
</g>
<defs>
<clipPath id="clip0_2801_16638">
<rect width="40" height="40" rx="6" fill="white"/>
</clipPath>
<clipPath id="clip1_2801_16638">
<rect x="-0.0117188" width="42.4119" height="40" rx="6" fill="white"/>
</clipPath>
<clipPath id="clip2_2801_16638">
<rect width="29" height="29" fill="white" transform="translate(6 6)"/>
</clipPath>
</defs>
</svg>
