<svg width="40" height="40" viewBox="0 0 40 40" fill="none" xmlns="http://www.w3.org/2000/svg">
<g clip-path="url(#clip0_2801_16679)">
<rect width="40" height="40" rx="6" fill="white" fill-opacity="0.1"/>
<rect x="-0.0117188" width="42.4119" height="40" rx="6" fill="white" fill-opacity="0.1"/>
<rect width="42" height="40" fill="#E71F2A"/>
<mask id="mask0_2801_16679" style="mask-type:luminance" maskUnits="userSpaceOnUse" x="6" y="6" width="29" height="29">
<path d="M34.5 6.5H6.5V34.5H34.5V6.5Z" fill="white"/>
</mask>
<g mask="url(#mask0_2801_16679)">
<path d="M31.4564 15.0217H9.54329C9.20729 15.0217 8.93457 15.2944 8.93457 15.6304V19.2827C8.93457 25.6593 14.1231 30.8479 20.4998 30.8479C26.8765 30.8479 32.0651 25.6593 32.0651 19.2827V15.6304C32.0651 15.2944 31.7924 15.0217 31.4564 15.0217ZM30.8477 19.2827C30.8477 24.9885 26.2058 29.6305 20.4999 29.6305C14.794 29.6305 10.152 24.9885 10.152 19.2827V16.2392H30.8477V19.2827Z" fill="white"/>
<path d="M20.4998 17.4565C17.4794 17.4565 15.0215 19.9145 15.0215 22.9348C15.0215 25.9551 17.4794 28.4131 20.4998 28.4131C23.5201 28.4131 25.9781 25.9551 25.9781 22.9348C25.9781 19.9145 23.5201 17.4565 20.4998 17.4565ZM20.4998 27.1957C18.1502 27.1957 16.2389 25.2844 16.2389 22.9348C16.2389 20.5852 18.1502 18.6739 20.4998 18.6739C22.8494 18.6739 24.7607 20.5853 24.7607 22.9348C24.7607 25.2843 22.8494 27.1957 20.4998 27.1957Z" fill="white"/>
<path d="M20.4996 19.8914C18.8209 19.8914 17.4561 21.2573 17.4561 22.9348C17.4561 24.6124 18.8209 25.9783 20.4996 25.9783C22.1783 25.9783 23.5431 24.6124 23.5431 22.9348C23.5431 21.2573 22.1784 19.8914 20.4996 19.8914ZM20.4996 24.7609C19.4928 24.7609 18.6735 23.9416 18.6735 22.9348C18.6735 21.928 19.4928 21.1087 20.4996 21.1087C21.5064 21.1087 22.3257 21.928 22.3257 22.9348C22.3257 23.9416 21.5064 24.7609 20.4996 24.7609Z" fill="white"/>
<path d="M33.8913 10.1521H7.10871C6.77271 10.1521 6.5 10.4248 6.5 10.7608V14.413C6.5 15.4198 7.31928 16.239 8.32609 16.239H32.6739C33.6807 16.239 34.5 15.4198 34.5 14.413V10.7608C34.5 10.4248 34.2273 10.1521 33.8913 10.1521ZM33.2826 14.413C33.2826 14.749 33.0087 15.0217 32.6739 15.0217H8.32609C7.99128 15.0217 7.71737 14.749 7.71737 14.413V11.3695H33.2826V14.413Z" fill="white"/>
<path d="M27.804 19.8912C28.1402 19.8912 28.4127 19.6187 28.4127 19.2825C28.4127 18.9463 28.1402 18.6738 27.804 18.6738C27.4678 18.6738 27.1953 18.9463 27.1953 19.2825C27.1953 19.6187 27.4678 19.8912 27.804 19.8912Z" fill="white"/>
</g>
</g>
<defs>
<clipPath id="clip0_2801_16679">
<rect width="40" height="40" rx="6" fill="white"/>
</clipPath>
</defs>
</svg>
