<svg width="40" height="40" viewBox="0 0 40 40" fill="none" xmlns="http://www.w3.org/2000/svg">
<path d="M0 4.94212C0 2.21266 1.49238 0 3.33333 0H36.6667C38.5076 0 40 2.21266 40 4.94212V34.5949C40 37.3243 38.5076 39.537 36.6667 39.537H3.33333C1.49238 39.537 0 37.3243 0 34.5949V4.94212Z" fill="white"/>
<path d="M17.3077 30H12C10.8954 30 10 29.1046 10 28V22M30 22.4211V28C30 29.1046 29.1046 30 28 30H23.0769" stroke="#E71F2A"/>
<path d="M10 17C10 16.5654 10 14.101 10 11.9995C10 10.895 10.8954 10 12 10H17" stroke="#E71F2A"/>
<path d="M23 10H28C29.1046 10 30 10.8954 30 12V17" stroke="#E71F2A"/>
<rect x="15.5" y="14.5" width="10" height="10" rx="1.5" stroke="#E71F2A"/>
</svg>
