<svg width="40" height="40" viewBox="0 0 40 40" fill="none" xmlns="http://www.w3.org/2000/svg">
<path d="M0 4.94212C0 2.21266 1.49238 0 3.33333 0H36.6667C38.5076 0 40 2.21266 40 4.94212V34.5949C40 37.3243 38.5076 39.537 36.6667 39.537H3.33333C1.49238 39.537 0 37.3243 0 34.5949V4.94212Z" fill="white"/>
<g clip-path="url(#clip0_4817_4969)">
<path d="M10 13.9336L12.768 18.84V21.8327L10.0032 26.7295L10 13.9336Z" fill="#5B57A2"/>
<path d="M20.6289 17.055L23.2226 15.4785L28.5308 15.4736L20.6289 20.2741V17.055Z" fill="#D90751"/>
<path d="M20.6133 13.9049L20.628 20.4008L17.8535 18.7102V9L20.6133 13.9049Z" fill="#FAB718"/>
<path d="M28.5299 15.4734L23.2215 15.4783L20.6133 13.9049L17.8535 9L28.5299 15.4734Z" fill="#ED6F26"/>
<path d="M20.628 26.7568V23.6052L17.8535 21.9468L17.855 31.6666L20.628 26.7568Z" fill="#63B22F"/>
<path d="M23.2152 25.1946L12.7678 18.84L10 13.9336L28.5187 25.1882L23.2152 25.1946Z" fill="#1487C9"/>
<path d="M17.8555 31.6668L20.628 26.757L23.2153 25.1949L28.5187 25.1885L17.8555 31.6668Z" fill="#017F36"/>
<path d="M10.0039 26.7296L17.8769 21.9469L15.23 20.3364L12.7687 21.8328L10.0039 26.7296Z" fill="#984995"/>
</g>
<defs>
<clipPath id="clip0_4817_4969">
<rect width="20" height="22.6667" fill="white" transform="translate(10 9)"/>
</clipPath>
</defs>
</svg>
