<svg width="40" height="41" viewBox="0 0 40 41" fill="none" xmlns="http://www.w3.org/2000/svg">
<path d="M0 5.82298C0 3.09352 1.49238 0.880859 3.33333 0.880859H36.6667C38.5076 0.880859 40 3.09352 40 5.82298V35.4757C40 38.2052 38.5076 40.4178 36.6667 40.4178H3.33333C1.49238 40.4178 0 38.2052 0 35.4757V5.82298Z" fill="white"/>
<path d="M30 19.3248C29.8953 18.7038 29.3194 18.2898 28.534 18.2898C28.2723 18.2898 28.0628 18.2898 27.8011 18.2898C27.3299 18.2381 27.2251 18.3933 27.2251 18.7556C27.2251 20.5668 27.2251 22.3263 27.2251 24.1376C27.2251 25.0691 26.2827 26.0523 25.1833 26.2593C21.7278 27.0356 18.2722 27.7601 14.8167 28.5363C14.4503 28.6398 14.0314 28.6398 13.6126 28.6398C13.4555 28.6398 13.1937 28.5363 13.1414 28.3811C13.089 28.2776 13.2461 28.0706 13.3508 27.9671C13.5079 27.8636 13.7173 27.7601 13.9267 27.6566C14.555 27.4496 15.2356 27.2426 15.8639 27.0356C18.4293 26.2076 20.9948 25.3796 23.5602 24.4998C24.712 24.1376 25.3403 23.3613 25.3403 22.3781C25.3927 19.2731 25.3403 16.1163 25.3403 13.0113C25.3403 12.4938 25.0785 12.0798 24.5026 11.8728C23.822 11.6141 23.1937 11.8211 22.6178 12.0798C18.9529 13.7876 15.3403 15.4953 11.6754 17.2031C10.6283 17.7206 10 18.4451 10 19.4801C10 22.4298 10 25.3796 10 28.3293C10 28.4846 9.99999 28.6398 10.0523 28.7433C10.4188 29.7266 11.3613 30.3476 12.6178 30.3476C15.1832 30.3476 17.7487 30.3476 20.3141 30.3476C22.8796 30.3476 25.3927 30.3476 27.9581 30.3476C28.534 30.3476 29.0052 30.2441 29.4241 29.8818C29.9476 29.4678 29.9476 28.8986 29.9476 28.3811C29.9476 25.8351 30 19.3248 30 19.3248ZM19.3194 18.3933C19.5812 17.7206 20.1571 17.3066 20.9948 17.2031C21.5707 17.1513 22.0419 17.4618 22.1466 17.9793C22.2513 18.7556 21.3089 19.6871 20.3141 19.6871C19.5288 19.6871 19.0576 19.1178 19.3194 18.3933Z" fill="#E20613"/>
</svg>
