<svg width="40" height="40" viewBox="0 0 40 40" fill="none" xmlns="http://www.w3.org/2000/svg">
<path d="M0 4.94212C0 2.21266 1.49238 0 3.33333 0H36.6667C38.5076 0 40 2.21266 40 4.94212V34.5949C40 37.3243 38.5076 39.537 36.6667 39.537H3.33333C1.49238 39.537 0 37.3243 0 34.5949V4.94212Z" fill="white"/>
<path d="M12.728 17.016C13.688 17.016 14.376 17.368 14.792 18.072C15.208 18.7653 15.416 19.7893 15.416 21.144C15.416 22.1467 15.3093 22.9467 15.096 23.544C14.8827 24.1307 14.5573 24.552 14.12 24.808C13.6827 25.064 13.1333 25.192 12.472 25.192C11.96 25.192 11.4533 25.1227 10.952 24.984C10.4507 24.8453 9.97067 24.632 9.512 24.344L9.592 23.528C10.0933 23.6667 10.5307 23.784 10.904 23.88C11.288 23.9653 11.6933 24.008 12.12 24.008C12.5787 24.008 12.9413 23.928 13.208 23.768C13.4853 23.608 13.688 23.32 13.816 22.904C13.944 22.488 14.008 21.9013 14.008 21.144C14.008 20.408 13.9493 19.8267 13.832 19.4C13.7253 18.9733 13.544 18.6693 13.288 18.488C13.0427 18.296 12.712 18.2 12.296 18.2C11.8693 18.2 11.448 18.3013 11.032 18.504C10.616 18.7067 10.1307 19.016 9.576 19.432L9.432 18.52C9.72 18.2107 10.0453 17.944 10.408 17.72C10.7707 17.496 11.1493 17.3253 11.544 17.208C11.9493 17.08 12.344 17.016 12.728 17.016ZM9.384 17.208L9.544 18.824L9.624 19.032V24.024L9.56 24.216C9.592 24.5147 9.61333 24.8027 9.624 25.08C9.63467 25.3573 9.63467 25.6507 9.624 25.96V28.216H8.28V17.208H9.384ZM24.1681 13.96L17.8801 26.056H16.7601L23.0481 13.96H24.1681ZM28.5139 17.016C28.7485 17.016 29.0099 17.0267 29.2979 17.048C29.5965 17.0693 29.8952 17.1067 30.1939 17.16C30.4925 17.2133 30.7699 17.288 31.0259 17.384L30.8499 18.264C30.4979 18.232 30.1245 18.2107 29.7299 18.2C29.3459 18.1787 29.0152 18.168 28.7379 18.168C28.1299 18.168 27.6392 18.2533 27.2659 18.424C26.9032 18.5947 26.6419 18.8933 26.4819 19.32C26.3219 19.7467 26.2419 20.3387 26.2419 21.096C26.2419 21.8533 26.3219 22.4507 26.4819 22.888C26.6419 23.3147 26.9032 23.6133 27.2659 23.784C27.6392 23.9547 28.1299 24.04 28.7379 24.04C28.8979 24.04 29.1059 24.0347 29.3619 24.024C29.6285 24.0133 29.9059 23.9973 30.1939 23.976C30.4925 23.9547 30.7752 23.9227 31.0419 23.88L31.1699 24.792C30.7859 24.9307 30.3592 25.032 29.8899 25.096C29.4312 25.16 28.9725 25.192 28.5139 25.192C27.6179 25.192 26.8979 25.0587 26.3539 24.792C25.8099 24.5253 25.4152 24.0933 25.1699 23.496C24.9352 22.8987 24.8179 22.0987 24.8179 21.096C24.8179 20.0933 24.9352 19.2933 25.1699 18.696C25.4152 18.0987 25.8099 17.672 26.3539 17.416C26.8979 17.1493 27.6179 17.016 28.5139 17.016Z" fill="#E71F2A"/>
</svg>
