<svg width="40" height="40" viewBox="0 0 40 40" fill="none" xmlns="http://www.w3.org/2000/svg">
<g clip-path="url(#clip0_2801_16715)">
<rect width="40" height="40" rx="6" fill="white" fill-opacity="0.1"/>
<rect x="-0.0117188" width="42.4119" height="40" rx="6" fill="white" fill-opacity="0.1"/>
<rect width="42" height="40" fill="#E71F2A"/>
<g clip-path="url(#clip1_2801_16715)">
<mask id="mask0_2801_16715" style="mask-type:luminance" maskUnits="userSpaceOnUse" x="7" y="8" width="25" height="25">
<path d="M31.5686 8.43115H7.43066V32.5691H31.5686V8.43115Z" fill="white"/>
</mask>
<g mask="url(#mask0_2801_16715)">
<path d="M29.3055 8.80835H9.69339C8.65357 8.80835 7.80762 9.65431 7.80762 10.6941V22.7631C7.80762 23.8029 8.65357 24.6489 9.69339 24.6489H20.0746L20.5793 28.4314C20.6241 28.7712 20.7614 29.0925 20.9756 29.3603L21.8918 30.5053C22.0517 30.706 22.1395 30.9568 22.1395 31.2125V32.192H28.174V31.1401C28.174 30.9157 28.2396 30.6988 28.3641 30.5125L29.3658 29.0099C29.5732 28.6991 29.6826 28.3375 29.6826 27.9637V24.6108C30.5422 24.4354 31.1912 23.674 31.1912 22.7631V10.6941C31.1912 9.65431 30.3453 8.80835 29.3055 8.80835ZM28.9283 27.9637C28.9283 28.1881 28.8627 28.405 28.7382 28.5913L27.7365 30.0939C27.5291 30.4046 27.4197 30.7663 27.4197 31.1401V31.4377H22.8938V31.2125C22.8938 30.7863 22.7468 30.3677 22.4805 30.0343L21.5643 28.8892C21.4357 28.7285 21.3536 28.5359 21.3264 28.3318L20.6336 23.1376C20.632 23.1229 20.6309 23.1082 20.6309 23.0934C20.6309 22.9113 20.7791 22.7631 20.9609 22.7631H21.1559C21.3199 22.7631 21.4568 22.8808 21.4818 23.0429L22.0293 26.6007C22.1244 27.218 22.6464 27.6661 23.271 27.6661H23.6481V17.8601C23.6481 17.6522 23.8171 17.4829 24.0253 17.4829C24.2335 17.4829 24.4024 17.6522 24.4024 17.8601V21.6316V24.6489V26.1575H25.1568V24.6489V21.6316C25.1568 21.4238 25.3257 21.2545 25.5339 21.2545C25.7421 21.2545 25.9111 21.4238 25.9111 21.6316V22.3859V26.1575H26.6654V22.3859C26.6654 22.1781 26.8343 22.0088 27.0425 22.0088C27.2507 22.0088 27.4197 22.1781 27.4197 22.3859V23.5174V25.4032V26.1575H28.174V25.4032V23.5174C28.174 23.3096 28.343 23.1402 28.5512 23.1402C28.7593 23.1402 28.9283 23.3096 28.9283 23.5174V27.9637ZM24.0253 16.7286C23.4015 16.7286 22.8938 17.2363 22.8938 17.8601V18.6136C22.4284 18.2636 22.1395 17.7089 22.1395 17.1058C22.1395 16.0659 22.9855 15.22 24.0253 15.22C25.0651 15.22 25.9111 16.0659 25.9111 17.1058C25.9111 17.7089 25.6222 18.2633 25.1568 18.6133V17.8601C25.1568 17.2363 24.6491 16.7286 24.0253 16.7286ZM30.4369 22.7631C30.4369 23.2541 30.1205 23.669 29.6826 23.8252V23.5174C29.6826 22.8936 29.1749 22.3859 28.5512 22.3859C28.4184 22.3859 28.2924 22.4131 28.174 22.4553V22.3859C28.174 21.7621 27.6663 21.2545 27.0425 21.2545C26.8936 21.2545 26.7521 21.285 26.6216 21.3375C26.4915 20.8565 26.0555 20.5002 25.5339 20.5002C25.4012 20.5002 25.2752 20.5273 25.1568 20.5696V19.4837C26.0668 19.05 26.6654 18.1297 26.6654 17.1058C26.6654 15.6499 25.4807 14.4657 24.0253 14.4657C22.5699 14.4657 21.3852 15.6499 21.3852 17.1058C21.3852 18.1297 21.9837 19.0496 22.8938 19.4837V26.7425C22.8324 26.6723 22.7901 26.5848 22.775 26.486L22.2274 22.9283C22.1455 22.3953 21.6944 22.0088 21.1559 22.0088H20.9609C20.3631 22.0088 19.8766 22.4953 19.8766 23.0934C19.8766 23.141 19.8799 23.1885 19.886 23.2365L19.9739 23.8946H9.69339C9.06957 23.8946 8.56193 23.3869 8.56193 22.7631V10.6941C8.56193 10.0703 9.06957 9.56266 9.69339 9.56266H29.3055C29.9293 9.56266 30.4369 10.0703 30.4369 10.6941V22.7631Z" fill="white"/>
<path d="M17.0067 16.4322L15.7282 16.0671V15.9667C16.1981 15.6126 16.4825 15.0555 16.4825 14.466V13.7902C16.4825 12.7764 15.7279 11.9172 14.7646 11.8335C14.2354 11.7867 13.7108 11.9655 13.3227 12.3215C12.9339 12.6776 12.711 13.1845 12.711 13.7114V14.4657C12.711 15.0552 12.9953 15.6126 13.4653 15.9664V16.0667L12.1867 16.4322C11.3849 16.6611 10.8252 17.4033 10.8252 18.2372V18.6144H18.3683V18.2372C18.3683 17.4033 17.8086 16.6611 17.0067 16.4322ZM11.6455 17.8601C11.7654 17.5263 12.0404 17.2585 12.3938 17.1575L14.2196 16.6358V15.5481L14.0321 15.4391C13.6772 15.2324 13.4653 14.8685 13.4653 14.4657V13.7114C13.4653 13.3953 13.5988 13.0909 13.8326 12.8771C14.0687 12.6606 14.378 12.558 14.6993 12.5844C15.2764 12.6346 15.7282 13.1637 15.7282 13.7898V14.4657C15.7282 14.8685 15.5162 15.2324 15.1614 15.4391L14.9739 15.5481V16.6358L16.7997 17.1575C17.1535 17.2585 17.428 17.5263 17.548 17.8601H11.6455Z" fill="white"/>
<path d="M9.31641 20.1229H19.8768V10.3169H9.31641V20.1229ZM10.0707 11.0712H19.1224V19.3686H10.0707V11.0712Z" fill="white"/>
<path d="M10.4479 20.8772C9.82405 20.8772 9.31641 21.3849 9.31641 22.0087C9.31641 22.6325 9.82405 23.1401 10.4479 23.1401C11.0717 23.1401 11.5793 22.6325 11.5793 22.0087C11.5793 21.3849 11.0717 20.8772 10.4479 20.8772ZM10.4479 22.3858C10.2397 22.3858 10.0707 22.2165 10.0707 22.0087C10.0707 21.8008 10.2397 21.6315 10.4479 21.6315C10.6561 21.6315 10.825 21.8008 10.825 22.0087C10.825 22.2165 10.6561 22.3858 10.4479 22.3858Z" fill="white"/>
<path d="M13.4645 20.8772C12.8407 20.8772 12.333 21.3849 12.333 22.0087C12.333 22.6325 12.8407 23.1401 13.4645 23.1401C14.0883 23.1401 14.5959 22.6325 14.5959 22.0087C14.5959 21.3849 14.0883 20.8772 13.4645 20.8772ZM13.4645 22.3858C13.2563 22.3858 13.0873 22.2165 13.0873 22.0087C13.0873 21.8008 13.2563 21.6315 13.4645 21.6315C13.6727 21.6315 13.8416 21.8008 13.8416 22.0087C13.8416 22.2165 13.6727 22.3858 13.4645 22.3858Z" fill="white"/>
<path d="M16.4821 20.8772C15.8583 20.8772 15.3506 21.3849 15.3506 22.0087C15.3506 22.6325 15.8583 23.1401 16.4821 23.1401C17.1058 23.1401 17.6135 22.6325 17.6135 22.0087C17.6135 21.3849 17.1058 20.8772 16.4821 20.8772ZM16.4821 22.3858C16.2739 22.3858 16.1049 22.2165 16.1049 22.0087C16.1049 21.8008 16.2739 21.6315 16.4821 21.6315C16.6902 21.6315 16.8592 21.8008 16.8592 22.0087C16.8592 22.2165 16.6902 22.3858 16.4821 22.3858Z" fill="white"/>
<path d="M28.5514 10.3169C27.9276 10.3169 27.4199 10.8245 27.4199 11.4484C27.4199 12.0722 27.9276 12.5798 28.5514 12.5798C29.1752 12.5798 29.6829 12.0722 29.6829 11.4484C29.6829 10.8245 29.1752 10.3169 28.5514 10.3169ZM28.5514 11.8255C28.3432 11.8255 28.1742 11.6562 28.1742 11.4484C28.1742 11.2405 28.3432 11.0712 28.5514 11.0712C28.7596 11.0712 28.9285 11.2405 28.9285 11.4484C28.9285 11.6562 28.7596 11.8255 28.5514 11.8255Z" fill="white"/>
<path d="M25.5338 10.3169C24.91 10.3169 24.4023 10.8245 24.4023 11.4484C24.4023 12.0722 24.91 12.5798 25.5338 12.5798C26.1576 12.5798 26.6653 12.0722 26.6653 11.4484C26.6653 10.8245 26.1576 10.3169 25.5338 10.3169ZM25.5338 11.8255C25.3256 11.8255 25.1567 11.6562 25.1567 11.4484C25.1567 11.2405 25.3256 11.0712 25.5338 11.0712C25.742 11.0712 25.911 11.2405 25.911 11.4484C25.911 11.6562 25.742 11.8255 25.5338 11.8255Z" fill="white"/>
<path d="M22.5162 10.3169C21.8924 10.3169 21.3848 10.8245 21.3848 11.4484C21.3848 12.0722 21.8924 12.5798 22.5162 12.5798C23.14 12.5798 23.6477 12.0722 23.6477 11.4484C23.6477 10.8245 23.14 10.3169 22.5162 10.3169ZM22.5162 11.8255C22.308 11.8255 22.1391 11.6562 22.1391 11.4484C22.1391 11.2405 22.308 11.0712 22.5162 11.0712C22.7244 11.0712 22.8934 11.2405 22.8934 11.4484C22.8934 11.6562 22.7244 11.8255 22.5162 11.8255Z" fill="white"/>
</g>
</g>
</g>
<defs>
<clipPath id="clip0_2801_16715">
<rect width="40" height="40" rx="6" fill="white"/>
</clipPath>
<clipPath id="clip1_2801_16715">
<rect width="25" height="25" fill="white" transform="translate(7 8)"/>
</clipPath>
</defs>
</svg>
