<svg width="40" height="40" viewBox="0 0 40 40" fill="none" xmlns="http://www.w3.org/2000/svg">
<g clip-path="url(#clip0_2801_16694)">
<rect width="40" height="40" rx="6" fill="white" fill-opacity="0.1"/>
<rect x="-0.0117188" width="42.4119" height="40" rx="6" fill="white" fill-opacity="0.1"/>
<rect width="42" height="40" fill="#E71F2A"/>
<g clip-path="url(#clip1_2801_16694)">
<path d="M31.7 19.0834C31.9868 19.0834 32.2672 18.9983 32.5056 18.839C32.7441 18.6797 32.9299 18.4532 33.0397 18.1882C33.1494 17.9233 33.1781 17.6317 33.1222 17.3505C33.0662 17.0692 32.9281 16.8108 32.7254 16.608C32.5226 16.4053 32.2642 16.2672 31.9829 16.2112C31.7017 16.1553 31.4101 16.184 31.1452 16.2937C30.8802 16.4035 30.6537 16.5893 30.4944 16.8278C30.3351 17.0662 30.25 17.3466 30.25 17.6334C30.25 17.8238 30.2876 18.0123 30.3604 18.1882C30.4333 18.3642 30.5401 18.524 30.6747 18.6587C30.8094 18.7933 30.9692 18.9001 31.1452 18.973C31.3211 19.0458 31.5096 19.0834 31.7 19.0834ZM31.7 17.2167C31.7825 17.2167 31.863 17.2411 31.9315 17.2869C32.0001 17.3327 32.0535 17.3978 32.085 17.4739C32.1165 17.55 32.1248 17.6338 32.1087 17.7146C32.0926 17.7955 32.0529 17.8697 31.9947 17.928C31.9364 17.9863 31.8622 18.0259 31.7813 18.042C31.7005 18.0581 31.6167 18.0498 31.5406 18.0183C31.4645 17.9868 31.3994 17.9334 31.3536 17.8648C31.3078 17.7963 31.2834 17.7158 31.2834 17.6334C31.2834 17.5228 31.3273 17.4169 31.4054 17.3387C31.4836 17.2606 31.5895 17.2167 31.7 17.2167Z" fill="white" stroke="white" strokeWidth="0.1"/>
<path d="M8.83308 16.6499C8.69605 16.6499 8.56463 16.7043 8.46774 16.8012C8.37084 16.8981 8.31641 17.0295 8.31641 17.1666V19.9666C8.31641 20.1036 8.37084 20.235 8.46774 20.3319C8.56463 20.4288 8.69605 20.4832 8.83308 20.4832H21.8997C22.0368 20.4832 22.1682 20.4288 22.2651 20.3319C22.362 20.235 22.4164 20.1036 22.4164 19.9666V17.1666C22.4164 17.0295 22.362 16.8981 22.2651 16.8012C22.1682 16.7043 22.0368 16.6499 21.8997 16.6499H8.83308ZM21.3831 19.4499H9.34974V17.6832H21.3831V19.4499Z" fill="white" stroke="white" strokeWidth="0.1"/>
<path d="M25.1672 16.6499H25.1172V16.6999V17.6332V17.6832H25.1672H26.1006H26.1506V17.6332V16.6999V16.6499H26.1006H25.1672Z" fill="white" stroke="white" strokeWidth="0.1"/>
<path d="M27.0334 16.6499H26.9834V16.6999V17.6332V17.6832H27.0334H27.9667H28.0167V17.6332V16.6999V16.6499H27.9667H27.0334Z" fill="white" stroke="white" strokeWidth="0.1"/>
<path d="M25.1672 19.45H25.1172V19.5V20.4333V20.4833H25.1672H26.1006H26.1506V20.4333V19.5V19.45H26.1006H25.1672Z" fill="white" stroke="white" strokeWidth="0.1"/>
<path d="M27.0334 19.45H26.9834V19.5V20.4333V20.4833H27.0334H27.9667H28.0167V20.4333V19.5V19.45H27.9667H27.0334Z" fill="white" stroke="white" strokeWidth="0.1"/>
<path d="M7.9002 14.7832H18.6335H33.1002C33.4848 14.7832 33.8536 14.936 34.1255 15.2079C34.3974 15.4798 34.5502 15.8486 34.5502 16.2332V20.8999C34.5502 21.2844 34.3974 21.6533 34.1255 21.9252C33.8536 22.1971 33.4848 22.3499 33.1002 22.3499H31.637L31.268 23.8249M7.9002 14.7832L28.4475 23.8128C28.4727 23.9138 28.531 24.0035 28.613 24.0676C28.695 24.1317 28.7961 24.1665 28.9002 24.1665H30.7669C30.871 24.1665 30.9721 24.1317 31.0541 24.0676C31.1361 24.0035 31.1943 23.9138 31.2195 23.8128L31.268 23.8249M7.9002 14.7832C7.51564 14.7832 7.14682 14.936 6.87489 15.2079C6.60296 15.4798 6.4502 15.8486 6.4502 16.2332V20.8999C6.4502 21.2844 6.60296 21.6533 6.87489 21.9252C7.14682 22.1971 7.51564 22.3499 7.9002 22.3499H9.36337L9.73235 23.8249C9.76024 23.9367 9.82472 24.036 9.91553 24.107C10.0063 24.178 10.1183 24.2165 10.2335 24.2165H12.1002C12.2155 24.2165 12.3274 24.178 12.4182 24.107C12.509 24.036 12.5735 23.9367 12.6014 23.8249L12.9704 22.3499H28.03L28.399 23.8249M7.9002 14.7832L28.399 23.8249L7.9002 14.7832ZM31.268 23.8249C31.2401 23.9367 31.1757 24.036 31.0849 24.107C30.9941 24.178 30.8821 24.2165 30.7669 24.2165H28.9002C28.7849 24.2165 28.673 24.178 28.5822 24.107C28.4914 24.036 28.4269 23.9367 28.399 23.8249M31.268 23.8249H28.399H31.268ZM11.905 22.3499L11.6967 23.1832H10.637L10.4287 22.3499H11.905ZM30.5717 22.3499L30.3634 23.1832H29.3037L29.0954 22.3499H30.5717ZM33.5169 16.2332V20.8999C33.5169 21.0104 33.473 21.1164 33.3948 21.1945C33.3167 21.2726 33.2107 21.3165 33.1002 21.3165H7.9002C7.78969 21.3165 7.68371 21.2726 7.60557 21.1945C7.52743 21.1164 7.48353 21.0104 7.48353 20.8999V16.2332C7.48353 16.1227 7.52743 16.0167 7.60557 15.9386C7.68371 15.8604 7.78969 15.8165 7.9002 15.8165H33.1002C33.2107 15.8165 33.3167 15.8604 33.3948 15.9386C33.473 16.0167 33.5169 16.1227 33.5169 16.2332Z" fill="white"/>
<path d="M7.9002 14.7832H18.6335H33.1002C33.4848 14.7832 33.8536 14.936 34.1255 15.2079C34.3974 15.4798 34.5502 15.8486 34.5502 16.2332V20.8999C34.5502 21.2844 34.3974 21.6533 34.1255 21.9252C33.8536 22.1971 33.4848 22.3499 33.1002 22.3499H31.637L31.268 23.8249M7.9002 14.7832L28.4475 23.8128C28.4727 23.9138 28.531 24.0035 28.613 24.0676C28.695 24.1317 28.7961 24.1665 28.9002 24.1665H30.7669C30.871 24.1665 30.9721 24.1317 31.0541 24.0676C31.1361 24.0035 31.1943 23.9138 31.2195 23.8128L31.268 23.8249M7.9002 14.7832C7.51564 14.7832 7.14682 14.936 6.87489 15.2079C6.60296 15.4798 6.4502 15.8486 6.4502 16.2332V20.8999C6.4502 21.2844 6.60296 21.6533 6.87489 21.9252C7.14682 22.1971 7.51564 22.3499 7.9002 22.3499H9.36337L9.73235 23.8249C9.76024 23.9367 9.82472 24.036 9.91553 24.107C10.0063 24.178 10.1183 24.2165 10.2335 24.2165H12.1002C12.2155 24.2165 12.3274 24.178 12.4182 24.107C12.509 24.036 12.5735 23.9367 12.6014 23.8249L12.9704 22.3499H28.03L28.399 23.8249M7.9002 14.7832L28.399 23.8249M31.268 23.8249C31.2401 23.9367 31.1757 24.036 31.0849 24.107C30.9941 24.178 30.8821 24.2165 30.7669 24.2165H28.9002C28.7849 24.2165 28.673 24.178 28.5822 24.107C28.4914 24.036 28.4269 23.9367 28.399 23.8249M31.268 23.8249H28.399M11.905 22.3499L11.6967 23.1832H10.637L10.4287 22.3499H11.905ZM30.5717 22.3499L30.3634 23.1832H29.3037L29.0954 22.3499H30.5717ZM33.5169 16.2332V20.8999C33.5169 21.0104 33.473 21.1164 33.3948 21.1945C33.3167 21.2726 33.2107 21.3165 33.1002 21.3165H7.9002C7.78969 21.3165 7.68371 21.2726 7.60557 21.1945C7.52743 21.1164 7.48353 21.0104 7.48353 20.8999V16.2332C7.48353 16.1227 7.52743 16.0167 7.60557 15.9386C7.68371 15.8604 7.78969 15.8165 7.9002 15.8165H33.1002C33.2107 15.8165 33.3167 15.8604 33.3948 15.9386C33.473 16.0167 33.5169 16.1227 33.5169 16.2332Z" stroke="white" strokeWidth="0.1"/>
</g>
</g>
<defs>
<clipPath id="clip0_2801_16694">
<rect width="40" height="40" rx="6" fill="white"/>
</clipPath>
<clipPath id="clip1_2801_16694">
<rect width="29" height="11" fill="white" transform="translate(6 14)"/>
</clipPath>
</defs>
</svg>
